<?xml version="1.0" encoding="iso-8859-1"?>
<!-- Generator: Adobe Illustrator 19.0.0, SVG Export Plug-In . SVG Version: 6.00 Build 0)  -->
<svg version="1.1" id="Capa_1" xmlns="http://www.w3.org/2000/svg" xmlns:xlink="http://www.w3.org/1999/xlink" x="0px" y="0px"
	 viewBox="0 0 479.924 479.924" style="enable-background:new 0 0 479.924 479.924; opacity: .7;" xml:space="preserve">
<linearGradient id="SVGID_1_" gradientUnits="userSpaceOnUse" x1="-58.1607" y1="609.6292" x2="12.6063" y2="609.6292" gradientTransform="matrix(8 0 0 -8 455.0611 5084.9956)">
	<stop  offset="0" style="stop-color: #ff9101"/>
	<stop  offset="0.356" style="stop-color: #ff9101"/>
	<stop  offset="0.717" style="stop-color: #ff9101"/>
	<stop  offset="1" style="stop-color: #ff9101"/>
</linearGradient>
<path style="fill:url(#SVGID_1_);" d="M396.791,147.784C381.287,78.867,312.85,35.567,243.933,51.071
	c-34.888,7.849-64.896,29.944-82.75,60.928h-1.192c-50.189,0.125-93.158,36.006-102.232,85.368
	c-45.636,16.715-69.082,67.26-52.367,112.897C18.089,344.93,51.073,367.986,87.991,368h96v-16h-96
	c-39.765-0.004-71.997-32.242-71.993-72.007c0.003-31.748,20.8-59.746,51.193-68.921c3.003-0.915,5.193-3.503,5.6-6.616
	c5.841-43.714,43.097-76.38,87.2-76.456c1.256,0,2.488,0.088,3.72,0.168l1.6,0.104c3.146,0.227,6.122-1.453,7.552-4.264
	c28.689-54.746,96.326-75.869,151.072-47.18c30.494,15.98,51.936,45.107,58.136,78.972c0.576,3.191,3.022,5.719,6.192,6.4
	c51.804,11.285,84.652,62.429,73.366,114.234c-9.596,44.052-48.554,75.49-93.638,75.566h-72v16h72
	c61.856-0.037,111.97-50.211,111.933-112.067C479.894,205.219,445.791,160.854,396.791,147.784L396.791,147.784z"/>
<linearGradient id="SVGID_2_" gradientUnits="userSpaceOnUse" x1="-58.1607" y1="592.6244" x2="12.6063" y2="592.6244" gradientTransform="matrix(8 0 0 -8 455.0611 5084.9956)">
	<stop  offset="0" style="stop-color: #ff9101"/>
	<stop  offset="0.356" style="stop-color: #ff9101"/>
	<stop  offset="0.717" style="stop-color: #ff9101"/>
	<stop  offset="1" style="stop-color: #ff9101"/>
</linearGradient>
<path style="fill:url(#SVGID_2_);" d="M234.335,258.344l-33.944,33.944l11.312,11.312l20.288-20.288V432h16V283.312l20.288,20.288
	l11.312-11.312l-33.944-33.944C242.523,255.22,237.459,255.22,234.335,258.344L234.335,258.344z"/>
<g>
</g>
<g>
</g>
<g>
</g>
<g>
</g>
<g>
</g>
<g>
</g>
<g>
</g>
<g>
</g>
<g>
</g>
<g>
</g>
<g>
</g>
<g>
</g>
<g>
</g>
<g>
</g>
<g>
</g>
</svg>
